<svg width="1111" height="641" viewBox="0 0 1111 641" fill="none" xmlns="http://www.w3.org/2000/svg">
<path d="M0 52L13.2 53.2C26.3 54.3 52.7 56.7 79.2 61C105.7 65.3 132.3 71.7 158.8 80.2C185.3 88.7 211.7 99.3 238 95C264.3 90.7 290.7 71.3 317.2 70.2C343.7 69 370.3 86 396.8 85C423.3 84 449.7 65 476.2 64C502.7 63 529.3 80 555.8 88.5C582.3 97 608.7 97 635 91.7C661.3 86.3 687.7 75.7 714.2 71.3C740.7 67 767.3 69 793.8 71.2C820.3 73.3 846.7 75.7 873 79C899.3 82.3 925.7 86.7 952.2 88.8C978.7 91 1005.3 91 1031.8 93C1058.3 95 1084.7 99 1097.8 101L1111 103V0H1097.8C1084.7 0 1058.3 0 1031.8 0C1005.3 0 978.7 0 952.2 0C925.7 0 899.3 0 873 0C846.7 0 820.3 0 793.8 0C767.3 0 740.7 0 714.2 0C687.7 0 661.3 0 635 0C608.7 0 582.3 0 555.8 0C529.3 0 502.7 0 476.2 0C449.7 0 423.3 0 396.8 0C370.3 0 343.7 0 317.2 0C290.7 0 264.3 0 238 0C211.7 0 185.3 0 158.8 0C132.3 0 105.7 0 79.2 0C52.7 0 26.3 0 13.2 0H0V52Z" fill="#72C1E0"/>
<path d="M0 91H13.2C26.3 91 52.7 91 79.2 96.3C105.7 101.7 132.3 112.3 158.8 120.8C185.3 129.3 211.7 135.7 238 130.3C264.3 125 290.7 108 317.2 109C343.7 110 370.3 129 396.8 127.8C423.3 126.7 449.7 105.3 476.2 102.2C502.7 99 529.3 114 555.8 122.5C582.3 131 608.7 133 635 130.8C661.3 128.7 687.7 122.3 714.2 120.3C740.7 118.3 767.3 120.7 793.8 118.5C820.3 116.3 846.7 109.7 873 110.7C899.3 111.7 925.7 120.3 952.2 125.7C978.7 131 1005.3 133 1031.8 133C1058.3 133 1084.7 131 1097.8 130L1111 129V101L1097.8 99C1084.7 97 1058.3 93 1031.8 91C1005.3 89 978.7 89 952.2 86.8C925.7 84.7 899.3 80.3 873 77C846.7 73.7 820.3 71.3 793.8 69.2C767.3 67 740.7 65 714.2 69.3C687.7 73.7 661.3 84.3 635 89.7C608.7 95 582.3 95 555.8 86.5C529.3 78 502.7 61 476.2 62C449.7 63 423.3 82 396.8 83C370.3 84 343.7 67 317.2 68.2C290.7 69.3 264.3 88.7 238 93C211.7 97.3 185.3 86.7 158.8 78.2C132.3 69.7 105.7 63.3 79.2 59C52.7 54.7 26.3 52.3 13.2 51.2L0 50V91Z" fill="#7BC8E5"/>
<path d="M0 302L13.2 282.8C26.3 263.7 52.7 225.3 79.2 220C105.7 214.7 132.3 242.3 158.8 250.8C185.3 259.3 211.7 248.7 238 248.7C264.3 248.7 290.7 259.3 317.2 270C343.7 280.7 370.3 291.3 396.8 283.8C423.3 276.3 449.7 250.7 476.2 241C502.7 231.3 529.3 237.7 555.8 240.8C582.3 244 608.7 244 635 237.7C661.3 231.3 687.7 218.7 714.2 234.7C740.7 250.7 767.3 295.3 793.8 301.7C820.3 308 846.7 276 873 256.8C899.3 237.7 925.7 231.3 952.2 236.7C978.7 242 1005.3 259 1031.8 265.3C1058.3 271.7 1084.7 267.3 1097.8 265.2L1111 263V127L1097.8 128C1084.7 129 1058.3 131 1031.8 131C1005.3 131 978.7 129 952.2 123.7C925.7 118.3 899.3 109.7 873 108.7C846.7 107.7 820.3 114.3 793.8 116.5C767.3 118.7 740.7 116.3 714.2 118.3C687.7 120.3 661.3 126.7 635 128.8C608.7 131 582.3 129 555.8 120.5C529.3 112 502.7 97 476.2 100.2C449.7 103.3 423.3 124.7 396.8 125.8C370.3 127 343.7 108 317.2 107C290.7 106 264.3 123 238 128.3C211.7 133.7 185.3 127.3 158.8 118.8C132.3 110.3 105.7 99.7 79.2 94.3C52.7 89 26.3 89 13.2 89H0V302Z" fill="#85CFEB"/>
<path d="M0 398L13.2 393.7C26.3 389.3 52.7 380.7 79.2 386C105.7 391.3 132.3 410.7 158.8 413.8C185.3 417 211.7 404 238 400.8C264.3 397.7 290.7 404.3 317.2 408.7C343.7 413 370.3 415 396.8 404.3C423.3 393.7 449.7 370.3 476.2 365C502.7 359.7 529.3 372.3 555.8 384C582.3 395.7 608.7 406.3 635 404.2C661.3 402 687.7 387 714.2 390.2C740.7 393.3 767.3 414.7 793.8 414.7C820.3 414.7 846.7 393.3 873 389.2C899.3 385 925.7 398 952.2 400.2C978.7 402.3 1005.3 393.7 1031.8 389.3C1058.3 385 1084.7 385 1097.8 385H1111V261L1097.8 263.2C1084.7 265.3 1058.3 269.7 1031.8 263.3C1005.3 257 978.7 240 952.2 234.7C925.7 229.3 899.3 235.7 873 254.8C846.7 274 820.3 306 793.8 299.7C767.3 293.3 740.7 248.7 714.2 232.7C687.7 216.7 661.3 229.3 635 235.7C608.7 242 582.3 242 555.8 238.8C529.3 235.7 502.7 229.3 476.2 239C449.7 248.7 423.3 274.3 396.8 281.8C370.3 289.3 343.7 278.7 317.2 268C290.7 257.3 264.3 246.7 238 246.7C211.7 246.7 185.3 257.3 158.8 248.8C132.3 240.3 105.7 212.7 79.2 218C52.7 223.3 26.3 261.7 13.2 280.8L0 300V398Z" fill="#8ED6F0"/>
<path d="M0 455L13.2 450.8C26.3 446.7 52.7 438.3 79.2 442.7C105.7 447 132.3 464 158.8 469.3C185.3 474.7 211.7 468.3 238 466.2C264.3 464 290.7 466 317.2 469.2C343.7 472.3 370.3 476.7 396.8 467.2C423.3 457.7 449.7 434.3 476.2 428C502.7 421.7 529.3 432.3 555.8 438.7C582.3 445 608.7 447 635 447C661.3 447 687.7 445 714.2 452.5C740.7 460 767.3 477 793.8 474.8C820.3 472.7 846.7 451.3 873 442.8C899.3 434.3 925.7 438.7 952.2 440.8C978.7 443 1005.3 443 1031.8 445C1058.3 447 1084.7 451 1097.8 453L1111 455V383H1097.8C1084.7 383 1058.3 383 1031.8 387.3C1005.3 391.7 978.7 400.3 952.2 398.2C925.7 396 899.3 383 873 387.2C846.7 391.3 820.3 412.7 793.8 412.7C767.3 412.7 740.7 391.3 714.2 388.2C687.7 385 661.3 400 635 402.2C608.7 404.3 582.3 393.7 555.8 382C529.3 370.3 502.7 357.7 476.2 363C449.7 368.3 423.3 391.7 396.8 402.3C370.3 413 343.7 411 317.2 406.7C290.7 402.3 264.3 395.7 238 398.8C211.7 402 185.3 415 158.8 411.8C132.3 408.7 105.7 389.3 79.2 384C52.7 378.7 26.3 387.3 13.2 391.7L0 396V455Z" fill="#97DDF6"/>
<path d="M0 500L13.2 499C26.3 498 52.7 496 79.2 501.3C105.7 506.7 132.3 519.3 158.8 524.7C185.3 530 211.7 528 238 527C264.3 526 290.7 526 317.2 522.8C343.7 519.7 370.3 513.3 396.8 504.8C423.3 496.3 449.7 485.7 476.2 486.7C502.7 487.7 529.3 500.3 555.8 501.3C582.3 502.3 608.7 491.7 635 489.5C661.3 487.3 687.7 493.7 714.2 502.2C740.7 510.7 767.3 521.3 793.8 518.2C820.3 515 846.7 498 873 492.7C899.3 487.3 925.7 493.7 952.2 496.8C978.7 500 1005.3 500 1031.8 497.8C1058.3 495.7 1084.7 491.3 1097.8 489.2L1111 487V453L1097.8 451C1084.7 449 1058.3 445 1031.8 443C1005.3 441 978.7 441 952.2 438.8C925.7 436.7 899.3 432.3 873 440.8C846.7 449.3 820.3 470.7 793.8 472.8C767.3 475 740.7 458 714.2 450.5C687.7 443 661.3 445 635 445C608.7 445 582.3 443 555.8 436.7C529.3 430.3 502.7 419.7 476.2 426C449.7 432.3 423.3 455.7 396.8 465.2C370.3 474.7 343.7 470.3 317.2 467.2C290.7 464 264.3 462 238 464.2C211.7 466.3 185.3 472.7 158.8 467.3C132.3 462 105.7 445 79.2 440.7C52.7 436.3 26.3 444.7 13.2 448.8L0 453V500Z" fill="#A0E0F7"/>
<path d="M0 558L13.2 551.5C26.3 545 52.7 532 79.2 533C105.7 534 132.3 549 158.8 557.7C185.3 566.3 211.7 568.7 238 567.7C264.3 566.7 290.7 562.3 317.2 559C343.7 555.7 370.3 553.3 396.8 548C423.3 542.7 449.7 534.3 476.2 532.3C502.7 530.3 529.3 534.7 555.8 533.5C582.3 532.3 608.7 525.7 635 527.7C661.3 529.7 687.7 540.3 714.2 550C740.7 559.7 767.3 568.3 793.8 561C820.3 553.7 846.7 530.3 873 524C899.3 517.7 925.7 528.3 952.2 534.7C978.7 541 1005.3 543 1031.8 540.8C1058.3 538.7 1084.7 532.3 1097.8 529.2L1111 526V485L1097.8 487.2C1084.7 489.3 1058.3 493.7 1031.8 495.8C1005.3 498 978.7 498 952.2 494.8C925.7 491.7 899.3 485.3 873 490.7C846.7 496 820.3 513 793.8 516.2C767.3 519.3 740.7 508.7 714.2 500.2C687.7 491.7 661.3 485.3 635 487.5C608.7 489.7 582.3 500.3 555.8 499.3C529.3 498.3 502.7 485.7 476.2 484.7C449.7 483.7 423.3 494.3 396.8 502.8C370.3 511.3 343.7 517.7 317.2 520.8C290.7 524 264.3 524 238 525C211.7 526 185.3 528 158.8 522.7C132.3 517.3 105.7 504.7 79.2 499.3C52.7 494 26.3 496 13.2 497L0 498V558Z" fill="#AAE2F8"/>
<path d="M0 615L13.2 611.8C26.3 608.7 52.7 602.3 79.2 602.3C105.7 602.3 132.3 608.7 158.8 610.8C185.3 613 211.7 611 238 611C264.3 611 290.7 613 317.2 615.2C343.7 617.3 370.3 619.7 396.8 617.7C423.3 615.7 449.7 609.3 476.2 607.2C502.7 605 529.3 607 555.8 609C582.3 611 608.7 613 635 614C661.3 615 687.7 615 714.2 616.2C740.7 617.3 767.3 619.7 793.8 617.7C820.3 615.7 846.7 609.3 873 606.2C899.3 603 925.7 603 952.2 605C978.7 607 1005.3 611 1031.8 609.8C1058.3 608.7 1084.7 602.3 1097.8 599.2L1111 596V524L1097.8 527.2C1084.7 530.3 1058.3 536.7 1031.8 538.8C1005.3 541 978.7 539 952.2 532.7C925.7 526.3 899.3 515.7 873 522C846.7 528.3 820.3 551.7 793.8 559C767.3 566.3 740.7 557.7 714.2 548C687.7 538.3 661.3 527.7 635 525.7C608.7 523.7 582.3 530.3 555.8 531.5C529.3 532.7 502.7 528.3 476.2 530.3C449.7 532.3 423.3 540.7 396.8 546C370.3 551.3 343.7 553.7 317.2 557C290.7 560.3 264.3 564.7 238 565.7C211.7 566.7 185.3 564.3 158.8 555.7C132.3 547 105.7 532 79.2 531C52.7 530 26.3 543 13.2 549.5L0 556V615Z" fill="#B2E5F9"/>
<path d="M0 641H13.2C26.3 641 52.7 641 79.2 641C105.7 641 132.3 641 158.8 641C185.3 641 211.7 641 238 641C264.3 641 290.7 641 317.2 641C343.7 641 370.3 641 396.8 641C423.3 641 449.7 641 476.2 641C502.7 641 529.3 641 555.8 641C582.3 641 608.7 641 635 641C661.3 641 687.7 641 714.2 641C740.7 641 767.3 641 793.8 641C820.3 641 846.7 641 873 641C899.3 641 925.7 641 952.2 641C978.7 641 1005.3 641 1031.8 641C1058.3 641 1084.7 641 1097.8 641H1111V594L1097.8 597.2C1084.7 600.3 1058.3 606.7 1031.8 607.8C1005.3 609 978.7 605 952.2 603C925.7 601 899.3 601 873 604.2C846.7 607.3 820.3 613.7 793.8 615.7C767.3 617.7 740.7 615.3 714.2 614.2C687.7 613 661.3 613 635 612C608.7 611 582.3 609 555.8 607C529.3 605 502.7 603 476.2 605.2C449.7 607.3 423.3 613.7 396.8 615.7C370.3 617.7 343.7 615.3 317.2 613.2C290.7 611 264.3 609 238 609C211.7 609 185.3 611 158.8 608.8C132.3 606.7 105.7 600.3 79.2 600.3C52.7 600.3 26.3 606.7 13.2 609.8L0 613V641Z" fill="#BBE8FA"/>
</svg>
