<svg width="1110" height="412" viewBox="0 0 1110 412" fill="none" xmlns="http://www.w3.org/2000/svg">
<mask id="mask0" mask-type="alpha" maskUnits="userSpaceOnUse" x="0" y="0" width="1110" height="412">
<rect width="1110" height="412" fill="#C4C4C4"/>
</mask>
<g mask="url(#mask0)">
<path d="M3 45.0067L23.541 42.26C43.959 39.5133 85.041 34.02 126 34.7067C166.959 35.3933 208.041 42.26 249 45.0067C289.959 47.7533 331.041 46.38 372 45.0067C412.959 43.6333 454.041 42.26 495 40.2C535.959 38.14 577.041 35.3933 618 37.4533C658.959 39.5133 700.041 46.38 741 49.1267C781.959 51.8733 823.041 50.5 864 50.5C904.959 50.5 946.041 51.8733 987 49.8133C1027.96 47.7533 1069.04 42.26 1089.46 39.5133L1110 36.7667V-1H1089.46C1069.04 -1 1027.96 -1 987 -1C946.041 -1 904.959 -1 864 -1C823.041 -1 781.959 -1 741 -1C700.041 -1 658.959 -1 618 -1C577.041 -1 535.959 -1 495 -1C454.041 -1 412.959 -1 372 -1C331.041 -1 289.959 -1 249 -1C208.041 -1 166.959 -1 126 -1C85.041 -1 43.959 -1 23.541 -1H3V45.0067Z" fill="#F4FBFE"/>
<path d="M3 82.0866L23.541 79.3399C43.959 76.5933 85.041 71.0999 126 72.4733C166.959 73.8466 208.041 82.0866 249 82.7733C289.959 83.4599 331.041 76.5933 372 73.8466C412.959 71.0999 454.041 72.4733 495 71.0999C535.959 69.7266 577.041 65.6066 618 68.3533C658.959 71.0999 700.041 80.7133 741 83.4599C781.959 86.2066 823.041 82.0866 864 82.0866C904.959 82.0866 946.041 86.2066 987 84.1466C1027.96 82.0866 1069.04 73.8466 1089.46 69.7266L1110 65.6066V35.3933L1089.46 38.1399C1069.04 40.8866 1027.96 46.3799 987 48.4399C946.041 50.4999 904.959 49.1266 864 49.1266C823.041 49.1266 781.959 50.4999 741 47.7533C700.041 45.0066 658.959 38.1399 618 36.0799C577.041 34.0199 535.959 36.7666 495 38.8266C454.041 40.8866 412.959 42.2599 372 43.6333C331.041 45.0066 289.959 46.3799 249 43.6333C208.041 40.8866 166.959 34.0199 126 33.3333C85.041 32.6466 43.959 38.1399 23.541 40.8866L3 43.6333V82.0866Z" fill="#F0FAFE"/>
<path d="M3 110.927L23.541 108.867C43.959 106.807 85.041 102.687 126 102.687C166.959 102.687 208.041 106.807 249 106.807C289.959 106.807 331.041 102.687 372 100.627C412.959 98.5667 454.041 98.5667 495 96.5067C535.959 94.4467 577.041 90.3267 618 93.7601C658.959 97.1934 700.041 108.18 741 110.927C781.959 113.673 823.041 108.18 864 106.807C904.959 105.433 946.041 108.18 987 106.807C1027.96 105.433 1069.04 99.9401 1089.46 97.1934L1110 94.4467V64.2334L1089.46 68.3534C1069.04 72.4734 1027.96 80.7134 987 82.7734C946.041 84.8334 904.959 80.7134 864 80.7134C823.041 80.7134 781.959 84.8334 741 82.0867C700.041 79.3401 658.959 69.7267 618 66.9801C577.041 64.2334 535.959 68.3534 495 69.7267C454.041 71.1001 412.959 69.7267 372 72.4734C331.041 75.2201 289.959 82.0867 249 81.4001C208.041 80.7134 166.959 72.4734 126 71.1001C85.041 69.7267 43.959 75.2201 23.541 77.9667L3 80.7134V110.927Z" fill="#E3F4FD"/>
<path d="M3 185.087L23.541 185.773C43.959 186.46 85.041 187.833 126 185.773C166.959 183.713 208.041 178.22 249 180.967C289.959 183.713 331.041 194.7 372 192.64C412.959 190.58 454.041 175.473 495 172.04C535.959 168.607 577.041 176.847 618 181.653C658.959 186.46 700.041 187.833 741 189.893C781.959 191.953 823.041 194.7 864 194.7C904.959 194.7 946.041 191.953 987 189.893C1027.96 187.833 1069.04 186.46 1089.46 185.773L1110 185.087V93.0733L1089.46 95.82C1069.04 98.5666 1027.96 104.06 987 105.433C946.041 106.807 904.959 104.06 864 105.433C823.041 106.807 781.959 112.3 741 109.553C700.041 106.807 658.959 95.82 618 92.3866C577.041 88.9533 535.959 93.0733 495 95.1333C454.041 97.1933 412.959 97.1933 372 99.2533C331.041 101.313 289.959 105.433 249 105.433C208.041 105.433 166.959 101.313 126 101.313C85.041 101.313 43.959 105.433 23.541 107.493L3 109.553V185.087Z" fill="#D2EDFC"/>
<path d="M3 222.167L23.541 220.107C43.959 218.047 85.041 213.927 126 211.867C166.959 209.807 208.041 209.807 249 213.24C289.959 216.673 331.041 223.54 372 220.793C412.959 218.047 454.041 205.687 495 203.627C535.959 201.567 577.041 209.807 618 215.3C658.959 220.793 700.041 223.54 741 224.227C781.959 224.913 823.041 223.54 864 221.48C904.959 219.42 946.041 216.673 987 213.927C1027.96 211.18 1069.04 208.433 1089.46 207.06L1110 205.687V183.713L1089.46 184.4C1069.04 185.087 1027.96 186.46 987 188.52C946.041 190.58 904.959 193.327 864 193.327C823.041 193.327 781.959 190.58 741 188.52C700.041 186.46 658.959 185.087 618 180.28C577.041 175.473 535.959 167.233 495 170.667C454.041 174.1 412.959 189.207 372 191.267C331.041 193.327 289.959 182.34 249 179.593C208.041 176.847 166.959 182.34 126 184.4C85.041 186.46 43.959 185.087 23.541 184.4L3 183.713V222.167Z" fill="#D2EDFC"/>
<path d="M3 341.647L23.541 338.213C43.959 334.78 85.041 327.913 126 323.107C166.959 318.3 208.041 315.553 249 316.927C289.959 318.3 331.041 323.793 372 323.793C412.959 323.793 454.041 318.3 495 316.927C535.959 315.553 577.041 318.3 618 319.673C658.959 321.047 700.041 321.047 741 318.987C781.959 316.927 823.041 312.807 864 312.807C904.959 312.807 946.041 316.927 987 316.24C1027.96 315.553 1069.04 310.06 1089.46 307.313L1110 304.567V204.313L1089.46 205.687C1069.04 207.06 1027.96 209.807 987 212.553C946.041 215.3 904.959 218.047 864 220.107C823.041 222.167 781.959 223.54 741 222.853C700.041 222.167 658.959 219.42 618 213.927C577.041 208.433 535.959 200.193 495 202.253C454.041 204.313 412.959 216.673 372 219.42C331.041 222.167 289.959 215.3 249 211.867C208.041 208.433 166.959 208.433 126 210.493C85.041 212.553 43.959 216.673 23.541 218.733L3 220.793V341.647Z" fill="#E3F4FD"/>
<path d="M3 374.607L23.541 372.547C43.959 370.487 85.041 366.367 126 362.247C166.959 358.127 208.041 354.007 249 353.32C289.959 352.633 331.041 355.38 372 355.38C412.959 355.38 454.041 352.633 495 351.26C535.959 349.887 577.041 349.887 618 351.947C658.959 354.007 700.041 358.127 741 358.127C781.959 358.127 823.041 354.007 864 354.007C904.959 354.007 946.041 358.127 987 358.127C1027.96 358.127 1069.04 354.007 1089.46 351.947L1110 349.887V303.193L1089.46 305.94C1069.04 308.687 1027.96 314.18 987 314.867C946.041 315.553 904.959 311.433 864 311.433C823.041 311.433 781.959 315.553 741 317.613C700.041 319.673 658.959 319.673 618 318.3C577.041 316.927 535.959 314.18 495 315.553C454.041 316.927 412.959 322.42 372 322.42C331.041 322.42 289.959 316.927 249 315.553C208.041 314.18 166.959 316.927 126 321.733C85.041 326.54 43.959 333.407 23.541 336.84L3 340.273V374.607Z" fill="#F0FAFE"/>
<path d="M3 411.687H23.541C43.959 411.687 85.041 411.687 126 411.687C166.959 411.687 208.041 411.687 249 411.687C289.959 411.687 331.041 411.687 372 411.687C412.959 411.687 454.041 411.687 495 411.687C535.959 411.687 577.041 411.687 618 411.687C658.959 411.687 700.041 411.687 741 411.687C781.959 411.687 823.041 411.687 864 411.687C904.959 411.687 946.041 411.687 987 411.687C1027.96 411.687 1069.04 411.687 1089.46 411.687H1110V348.513L1089.46 350.573C1069.04 352.633 1027.96 356.753 987 356.753C946.041 356.753 904.959 352.633 864 352.633C823.041 352.633 781.959 356.753 741 356.753C700.041 356.753 658.959 352.633 618 350.573C577.041 348.513 535.959 348.513 495 349.887C454.041 351.26 412.959 354.007 372 354.007C331.041 354.007 289.959 351.26 249 351.947C208.041 352.633 166.959 356.753 126 360.873C85.041 364.993 43.959 369.113 23.541 371.173L3 373.233V411.687Z" fill="#F4FBFE"/>
</g>
</svg>
