<svg width="30" height="30" viewBox="0 0 30 30" fill="none" xmlns="http://www.w3.org/2000/svg">
<path d="M12.285 12.585C11.43 12.585 10.755 13.335 10.755 14.25C10.755 15.165 11.445 15.915 12.285 15.915C13.14 15.915 13.815 15.165 13.815 14.25C13.83 13.335 13.14 12.585 12.285 12.585ZM17.76 12.585C16.905 12.585 16.23 13.335 16.23 14.25C16.23 15.165 16.92 15.915 17.76 15.915C18.615 15.915 19.29 15.165 19.29 14.25C19.29 13.335 18.615 12.585 17.76 12.585Z" fill="black"/>
<path d="M25.05 0H4.95C3.255 0 1.875 1.38 1.875 3.09V23.37C1.875 25.08 3.255 26.46 4.95 26.46H21.96L21.165 23.685L23.085 25.47L24.9 27.15L28.125 30V3.09C28.125 1.38 26.745 0 25.05 0ZM19.26 19.59C19.26 19.59 18.72 18.945 18.27 18.375C20.235 17.82 20.985 16.59 20.985 16.59C20.37 16.995 19.785 17.28 19.26 17.475C18.51 17.79 17.79 18 17.085 18.12C15.8003 18.3565 14.4828 18.3514 13.2 18.105C12.4469 17.9576 11.7088 17.7417 10.995 17.46C10.6187 17.3153 10.2529 17.1449 9.9 16.95C9.855 16.92 9.81 16.905 9.765 16.875C9.735 16.86 9.72 16.845 9.705 16.83C9.435 16.68 9.285 16.575 9.285 16.575C9.285 16.575 10.005 17.775 11.91 18.345C11.46 18.915 10.905 19.59 10.905 19.59C7.59 19.485 6.33 17.31 6.33 17.31C6.33 12.48 8.49 8.565 8.49 8.565C10.65 6.945 12.705 6.99 12.705 6.99L12.855 7.17C10.155 7.95 8.91 9.135 8.91 9.135C8.91 9.135 9.24 8.955 9.795 8.7C11.4 7.995 12.675 7.8 13.2 7.755C13.29 7.74 13.365 7.725 13.455 7.725C16.0562 7.37293 18.7015 7.8673 21 9.135C21 9.135 19.815 8.01 17.265 7.23L17.475 6.99C17.475 6.99 19.53 6.945 21.69 8.565C21.69 8.565 23.85 12.48 23.85 17.31C23.85 17.31 22.575 19.485 19.26 19.59Z" fill="black"/>
</svg>
