<svg width="224" height="223" viewBox="0 0 224 223" fill="none" xmlns="http://www.w3.org/2000/svg">
<path d="M224 223C204.4 219.1 184.9 215.1 168.9 204.7C152.9 194.4 140.4 177.5 128.5 164.4C116.6 151.3 105.3 141.9 88.9 134.1C72.6 126.2 51.1 120 36.1 107.5C21.1 95 12.6 76.1 7.6 57C2.7 37.8 1.39999 18.4 -9.79135e-06 -1L224 -1.00001L224 223Z" fill="#FFFAEA"/>
<path d="M224 185.7C207.7 182.4 191.4 179.1 178.1 170.5C164.7 161.8 154.3 147.8 144.4 136.8C134.5 125.9 125.1 118.1 111.5 111.5C97.8 105 79.9 99.9 67.4 89.4C54.9 79 47.8 63.3 43.7 47.3C39.6 31.4 38.5 15.2 37.3 -1.00005L224 -1.00005L224 185.7Z" fill="#FFF0C1"/>
<path d="M224 148.3C211 145.7 197.9 143.1 187.2 136.2C176.6 129.2 168.3 118 160.3 109.3C152.4 100.5 144.9 94.2 134 89C123 83.8 108.7 79.7 98.7 71.3C88.7 63 83 50.4 79.8 37.7C76.5 24.9 75.6 11.9 74.7 -0.999954L224 -0.999961L224 148.3Z" fill="#FFE698"/>
<path d="M224 111C214.2 109 204.4 107.1 196.4 101.9C188.4 96.7 182.2 88.3 176.2 81.7C170.3 75.1 164.7 70.4 156.5 66.5C148.3 62.6 137.5 59.5 130 53.3C122.5 47 118.3 37.6 115.8 28C113.4 18.4 112.7 8.7 112 -1L224 -1L224 111Z" fill="#FCDC6E"/>
<path d="M224 73.6999C217.5 72.3999 211 71 205.6 67.6C200.3 64.1 196.1 58.5 192.2 54.1C188.2 49.8 184.4 46.6 179 44C173.5 41.4 166.4 39.3 161.4 35.2C156.4 31 153.5 24.7 151.9 18.3C150.2 11.9 149.8 5.49995 149.3 -1.00005L224 -1.00005L224 73.6999Z" fill="#F6D33C"/>
<path d="M224 36.3C220.7 35.7 217.5 35 214.8 33.3C212.1 31.6 210.1 28.8 208.1 26.6C206.1 24.4 204.2 22.8 201.5 21.5C198.8 20.2 195.2 19.2 192.7 17.1C190.2 15 188.8 11.9001 187.9 8.70005C187.1 5.50005 186.9 2.20005 186.7 -0.99995L224 -0.999952L224 36.3Z" fill="#F2CE14"/>
</svg>
