<svg width="224" height="224" viewBox="0 0 224 224" fill="none" xmlns="http://www.w3.org/2000/svg">
<mask id="mask0" mask-type="alpha" maskUnits="userSpaceOnUse" x="0" y="0" width="224" height="224">
<path d="M0 15C0 6.71573 6.71573 0 15 0H224V224H0V15Z" fill="#F2CE14"/>
</mask>
<g mask="url(#mask0)">
<path d="M224 0C219.4 18.8 214.8 37.6 210.6 56.4C206.3 75.2 202.4 94 194 112C185.5 130 172.5 147.1 154.9 154.9C137.2 162.6 114.8 161.1 98.5 170.6C82.2 180.1 72.1 200.8 56.7 211.5C41.3 222.3 20.6 223.1 0 224V0H224Z" fill="#FFFAEA"/>
<path d="M186.7 0C182.8 15.7 179 31.3 175.5 47C171.9 62.7 168.7 78.4 161.7 93.3C154.6 108.3 143.8 122.6 129 129C114.3 135.5 95.6 134.2 82.1 142.2C68.5 150.1 60.1 167.3 47.2 176.3C34.4 185.2 17.2 186 0 186.7V0H186.7Z" fill="#FFF0C1"/>
<path d="M149.3 0C146.3 12.5 143.2 25.1 140.4 37.6C137.6 50.2 135 62.7 129.3 74.7C123.7 86.6 115 98.1 103.2 103.2C91.4 108.4 76.5 107.4 65.7 113.7C54.8 120.1 48.1 133.9 37.8 141C27.5 148.2 13.8 148.8 0 149.3V0H149.3Z" fill="#FFE698"/>
<path d="M112 0C109.7 9.4 107.4 18.8 105.3 28.2C103.2 37.6 101.2 47 97 56C92.8 65 86.3 73.5 77.4 77.4C68.6 81.3 57.4 80.5 49.3 85.3C41.1 90.1 36 100.4 28.3 105.8C20.6 111.1 10.3 111.6 0 112V0H112Z" fill="#FCDC6E"/>
<path d="M74.7 0C73.1 6.3 71.6 12.5 70.2 18.8C68.8 25.1 67.5 31.3 64.7 37.3C61.8 43.3 57.5 49 51.6 51.6C45.7 54.2 38.3 53.7 32.8 56.9C27.4 60 24 66.9 18.9 70.5C13.8 74.1 6.9 74.4 0 74.7V0H74.7Z" fill="#F6D33C"/>
<path d="M37.3 0C36.6 3.1 35.8 6.3 35.1 9.4C34.4 12.5 33.7 15.7 32.3 18.7C30.9 21.7 28.8 24.5 25.8 25.8C22.9 27.1 19.1 26.8 16.4 28.4C13.7 30 12 33.5 9.4 35.3C6.9 37 3.4 37.2 0 37.3V0H37.3Z" fill="#F2CE14"/>
</g>
</svg>
